<?xml version="1.0" standalone="no"?><!DOCTYPE svg PUBLIC "-//W3C//DTD SVG 1.1//EN" "http://www.w3.org/Graphics/SVG/1.1/DTD/svg11.dtd"><svg t="1548222222414" class="icon" style="" viewBox="0 0 1479 1024" version="1.1" xmlns="http://www.w3.org/2000/svg" p-id="4840" xmlns:xlink="http://www.w3.org/1999/xlink" width="288.8671875" height="200"><defs><style type="text/css"></style></defs><path d="M0 985.809487 0 175.332715C0 139.720655 27.136287-5.80314 223.538838 0.17923 419.94139 6.161599 429.358956 265.371046 429.358956 265.371046L314.03694 265.371046C314.03694 265.371046 306.717706 120.624272 220.98636 120.62428 135.255014 120.624288 109.719593 189.652839 109.719595 243.446325 109.719597 297.239809 109.719595 400.572607 109.719595 400.572607L486.379304 400.572607 486.379304 202.008228C486.379304 202.008228 484.354228 3.194344 684.840718 3.194344 885.327212 3.194344 918.046799 253.268047 918.046799 253.268047L807.568128 253.268047C807.568128 253.268047 789.82731 133.056971 689.935039 133.056974 590.042772 133.056977 605.565011 396.414197 605.565011 396.414197L918.901749 396.414197 918.901749 514.995586 411.287577 514.995586C411.287577 514.995586 411.287592 695.982098 411.287577 723.285825 411.287559 750.589548 423.732823 901.847321 699.767397 901.847357 975.801975 901.847393 974.589501 712.783194 974.589501 712.783194L974.589501 39.565977C974.589501 39.565977 1152.260738 39.565977 1176.954613 39.565977 1201.648492 39.565976 1291.259356 55.839211 1384.392877 152.828039 1477.526395 249.816867 1480.381858 420.535974 1477.743389 517.576708 1473.382717 677.958688 1455.840249 831.383036 1372.494213 916.657047 1349.577393 940.103983 1304.089384 957.876051 1257.441615 970.797568 1186.015477 990.582741 1111.870269 998.99573 1111.870269 998.99573L1111.870269 878.701611C1111.870269 878.701611 1235.995107 877.710487 1284.221022 831.383015 1332.446933 785.055542 1365.623812 704.636539 1365.623794 528.031654 1365.623776 351.426771 1352.308311 275.432067 1272.857175 210.944773 1193.406042 146.457479 1096.709614 152.828042 1096.709614 152.828042 1096.709614 152.828042 1096.709643 703.755722 1096.709614 740.445721 1096.709585 777.135721 1041.863251 1023.042279 713.034965 1023.042199 384.206679 1023.042117 303.803621 796.504475 303.803632 720.908584 303.803642 645.312692 303.803632 517.576708 303.803632 517.576708L111.643917 517.576708 111.643917 988.797325 0 985.809487Z" p-id="4841"></path></svg>