<?xml version="1.0" standalone="no"?><!DOCTYPE svg PUBLIC "-//W3C//DTD SVG 1.1//EN" "http://www.w3.org/Graphics/SVG/1.1/DTD/svg11.dtd"><svg t="1547616977977" class="icon" style="" viewBox="0 0 1024 1024" version="1.1" xmlns="http://www.w3.org/2000/svg" p-id="3466" xmlns:xlink="http://www.w3.org/1999/xlink" width="200" height="200"><defs><style type="text/css"></style></defs><path d="M512 1024C229.2224 1024 0 794.7776 0 512 0 229.2224 229.2224 0 512 0c282.7776 0 512 229.2224 512 512 0 282.7776-229.2224 512-512 512z m-112.810667-441.668267h1.809067V273.066667h-56.2688v307.575466a112.196267 112.196267 0 0 1-112.503467 112.520534H204.8v56.251733h27.426133c91.409067-0.085333 166.980267-73.8816 166.980267-167.082667zM819.2 510.344533C819.2 380.296533 726.101333 273.066667 610.0992 273.066667H469.504v476.2624h140.5952C726.101333 749.329067 819.2 640.392533 819.2 510.344533zM525.755733 329.3184h84.343467c84.343467 0 152.9344 82.653867 154.624 182.818133 0 100.181333-70.280533 181.026133-154.624 181.026134h-84.343467V329.3184z" fill="#C9121C" p-id="3467"></path></svg>