<?xml version="1.0" standalone="no"?><!DOCTYPE svg PUBLIC "-//W3C//DTD SVG 1.1//EN" "http://www.w3.org/Graphics/SVG/1.1/DTD/svg11.dtd"><svg t="1547614234254" class="icon" style="" viewBox="-150 0 4000 1500" version="1.1" xmlns="http://www.w3.org/2000/svg" p-id="7704" xmlns:xlink="http://www.w3.org/1999/xlink" width="200" height="200"><defs><style type="text/css"></style></defs><path d="M3434.714591 647.187098h-25.983102c19.506631 13.37763 29.271207 29.811717 29.271207 48.781056 0 12.167917-3.950873 21.594674-11.402194 28.936605-7.676533 7.013765-17.978402 10.630036-30.912042 10.630036h-99.412072v-24.985732h91.294765c10.414475 0 17.756407-1.763093 22.144837-4.825985 4.488166-2.850548 6.576209-8.114089 6.576208-15.018465 0-15.343415-10.19248-29.699111-30.249273-43.514298h-89.769754v-24.770172h138.438203v24.766955zM3430.438769 483.216217c5.038328 16.881295 7.563927 31.349598 7.563927 43.514298 0 20.381743-6.801421 37.050695-20.394612 49.981117-13.589974 12.930422-31.236992 19.181681-52.71906 19.181681-21.044512 0-38.363363-5.701097-51.518997-17.318851-13.705797-10.964638-20.282006-25.645284-20.282006-43.189348 0-16.881295 5.813703-29.586505 17.869013-39.013262 11.842967-8.989201 28.721045-13.705797 50.756492-13.705797l7.892094 0.225213v87.469368c32.774872-3.625923 49.218611-19.957056 49.218612-48.565495 0-10.079874-2.850548-23.232291-8.339302-38.575706h19.953839z m-79.802487 85.931488v-61.048709c-25.75789 0-38.575706 9.754924-38.575706 28.598786 0 19.5195 12.817816 30.258925 38.575706 32.449923zM3434.714591 365.822526h-25.983102c19.506631 13.255372 29.271207 29.486768 29.271207 48.443236 0 12.389912-3.950873 21.919623-11.402194 28.833651-7.676533 7.229325-17.978402 10.954986-30.912042 10.954986h-99.412072v-25.207728h91.294765c10.414475 0 17.756407-1.312668 22.144837-4.600772 4.488166-3.075761 6.576209-7.888877 6.576208-15.018465 0-15.456021-10.19248-29.699111-30.249273-43.401691h-89.769754v-25.320334h138.438203v25.317117zM3430.438769 201.954599c5.038328 16.881295 7.563927 31.134037 7.563927 42.964135 0 20.606956-6.801421 37.275907-20.394612 50.20633-13.589974 12.718079-31.236992 19.294288-52.71906 19.294288-21.044512 0-38.363363-5.701097-51.518997-17.106508-13.705797-11.392542-20.282006-25.645284-20.282006-43.514297 0-16.768689 5.813703-29.586505 17.869013-38.688313 11.842967-9.426757 28.721045-13.91814 50.756492-13.91814l7.892094 0.212343v87.366414c32.774872-3.838267 49.218611-19.84445 49.218612-48.452889 0-10.51743-2.850548-23.344898-8.339302-38.363363h19.953839z m-79.802487 85.715927V226.625034c-25.75789 0-38.575706 9.529712-38.575706 28.711393 0 19.403677 12.817816 29.8085 38.575706 32.334099z" fill="#A8A6A1" p-id="7705"></path><path d="M227.432582 931.299264H3.828615V21.977535h223.603967v909.321729zM374.084612 931.299264V255.33321h204.634629v62.808585c26.195446-26.308052 56.020033-45.92729 89.007249-59.082925 33.212428-13.043029 70.375729-19.619237 111.477034-19.619237 73.763571 0 128.458066 23.457504 164.408437 69.938173 36.062977 46.4678 53.93199 117.930985 53.93199 213.951998v407.96946h-204.422287V533.197334c0-45.60234-8.114089-79.139718-24.11062-100.39979-16.11879-21.482068-41.764073-32.22471-76.514382-32.22471-41.101305 0-70.263123 10.079874-87.681712 29.924324-17.431458 19.831581-26.095709 53.919121-26.095709 102.700176v398.105148h-204.634629zM1147.162352 931.299264V395.521637H1043.249245V271.889555h103.913107c-1.312668-14.030747-2.084825-24.22001-2.412992-30.474486-0.112606-6.138653-0.32495-11.83975-0.32495-16.993901 0-71.575791 17.531195-123.094789 52.39411-155.094286 35.072041-31.571593 92.182746-47.352564 171.76002-47.352564 17.418588 0 35.174995 1.312668 53.269222 3.075761 18.19718 1.965785 37.150432 5.475884 56.66028 10.079874v141.613701h-34.299884c-37.488251 0-62.371029 4.600772-74.426339 13.593191-12.167917 9.642318-18.19718 28.061494-18.19718 55.457001v26.095709h126.920185v123.632082h-126.920185v535.777627h-204.422287zM1848.223529 953.222105c-109.713941 0-197.955466-32.774872-264.70849-98.646349-67.084408-65.77174-100.39979-152.690945-100.39979-260.867005 0-107.638767 33.537378-194.779968 100.837346-261.092219 66.975019-66.209296 154.991331-99.309118 264.267716-99.309117 110.37671 0 199.046139 32.887479 265.805597 98.871561 66.862412 66.31225 100.39979 153.453451 100.39979 261.529775 0 107.738505-33.649984 194.445367-101.059341 260.429449-67.084408 66.08382-155.641231 99.083905-265.142828 99.083905z m-155.97905-359.516572c0 61.373659 14.255959 110.476447 42.426842 146.877242 28.27062 35.95037 66.08382 54.25694 113.552208 54.25694 47.355781 0 85.056375-18.306569 113.664814-54.919708 28.386443-36.175583 42.639185-85.168982 42.639185-146.214474 0-61.608523-14.143353-110.814266-42.314236-146.989848-28.273837-36.613139-66.31225-54.919708-113.989763-54.919709-47.027614 0-84.618819 18.419176-113.114652 55.469871-28.608439 36.60027-42.864398 85.493931-42.864398 146.439686z" fill="#175E9F" p-id="7706"></path><path d="M2998.358688 896.664779c-33.759373 18.518913-71.035281 32.662266-112.027197 42.20163-40.776355 9.529712-84.068657 14.355696-129.558391 14.355696-140.075821 0-251.990411-42.964135-336.059068-129.445784-83.965703-86.378695-126.057943-201.571738-126.057943-345.936251 0-78.69251 12.940074-149.177628 38.588575-211.651612 25.645284-62.258423 63.89604-115.315301 114.864876-159.370108 40.663749-35.075258 86.816251-61.270704 138.438203-79.139718C2638.179347 9.922225 2694.736673 1.37058 2756.660494 1.37058c139.53531 0 251.562507 43.301954 335.518558 129.995947 84.29387 87.031812 126.382893 202.347113 126.382892 346.473543 0 60.395593-6.904376 114.765139-20.931905 164.083487-14.143353 48.781055-35.850633 92.520565-65.108971 131.871647 26.2984 23.122902 55.019445 41.538861 86.044094 55.344395 31.124385 13.593191 64.562026 22.357179 99.849628 26.086057l-68.287687 162.220656c-51.618735-5.038328-98.758955-17.756407-141.063539-38.35371-42.204847-20.1694-79.355279-47.577777-110.704876-82.427823z m-241.698194-133.950037c72.450903 0 129.021098-25.098339 169.57224-75.188845 40.663749-50.20633 60.945755-119.916073 60.945755-209.685827 0-89.657148-20.394612-159.695058-61.270704-210.338944-40.676618-50.531279-97.230727-75.851614-169.247291-75.851613-71.575791 0-127.795298 25.75789-168.89982 76.514382-41.114174 50.856229-61.608523 120.894139-61.608524 209.676175 0 89.119855 20.494349 158.607603 61.170968 209.248271 40.991916 50.306067 97.224292 75.626401 169.337376 75.626401z" fill="#09843C" p-id="7707"></path><path d="M3132.521068 773.795204c29.261555-39.351081 50.968835-83.090591 65.108971-131.871647 6.566557-23.560458 11.617754-48.218024 15.005596-74.313733a90253.99978 90253.99978 0 0 1-236.20944 11.627406c-9.854661 42.964135-26.411007 79.130066-50.193461 108.288667-40.551143 50.093723-97.121338 75.188845-169.57224 75.188845-72.113084 0-128.34546-25.320334-169.337376-75.626401-20.069663-24.770172-34.975521-54.581889-45.164784-89.007248-78.805116 3.513317-156.744773 6.363865-234.021661 8.876595 18.206832 85.390977 55.469871 157.944834 112.577359 216.815415 84.068657 86.48165 195.983247 129.445785 336.059068 129.445785 45.489734 0 88.782036-4.825985 129.558391-14.355697 40.988699-9.539364 78.267823-23.682717 112.027197-42.201629 31.349598 34.850046 68.50003 62.258423 110.701659 82.427822 42.304584 20.597304 89.444804 33.312165 141.063539 38.353711l68.287686-162.220657c-35.287602-3.72566-68.722025-12.492866-99.849628-26.086057-31.021431-13.802317-59.742476-32.221493-86.040876-55.341177z" fill="#107F3B" p-id="7708"></path><path d="M1961.888343 739.920007c-28.608439 36.613139-66.31225 54.919708-113.664814 54.919708-47.46517 0-85.281588-18.306569-113.552208-54.25694-23.785671-30.696481-37.488251-70.700679-41.217129-119.703729-69.712961 1.325537-139.313315 1.650487-209.135664 1.86283 5.588491 94.708345 38.363363 172.097839 99.196511 231.830663 66.749806 65.874694 154.991331 98.646349 264.70849 98.646349 109.501598 0 198.058421-33.000085 265.146045-99.087122 63.89604-62.695979 97.108468-143.81435 100.396573-243.99858-70.475466 1.975436-140.188427 4.176086-209.901388 5.701097-3.062892 50.859446-16.878078 92.514131-41.976416 124.085724zM1147.162352 931.299264h204.422287v-308.772949c-67.850131-0.112606-135.922256-0.550162-204.422287-1.975436v310.748385z" fill="#04589A" p-id="7709"></path><path d="M374.084612 931.299264h204.634629V604.882514c-67.399705-2.963155-135.587655-6.138653-204.634629-9.754924v336.171674z" fill="#04589A" p-id="7710"></path><path d="M793.121664 931.299264h204.422287v-313.373721c-67.63457-1.212931-135.697044-3.075761-204.422287-5.263541v318.637262z" fill="#04589A" p-id="7711"></path><path d="M3.828615 931.299264h223.603967V587.229061a22458.332082 22458.332082 0 0 1-223.603967-14.130483v358.200686z" fill="#04589A" p-id="7712"></path></svg>