<?xml version="1.0" standalone="no"?><!DOCTYPE svg PUBLIC "-//W3C//DTD SVG 1.1//EN" "http://www.w3.org/Graphics/SVG/1.1/DTD/svg11.dtd"><svg t="1547621941403" class="icon" style="" viewBox="0 0 1024 1024" version="1.1" xmlns="http://www.w3.org/2000/svg" p-id="22137" xmlns:xlink="http://www.w3.org/1999/xlink" width="200" height="200"><defs><style type="text/css"></style></defs><path d="M477.703 243.95c-30.436 4.172-74.776 21.166-95.786 36.77-2.781 2.009-6.18 4.172-7.417 4.634-1.236 0.464-8.343 6.026-15.913 12.205-27.964 23.483-51.447 54.692-64.734 85.745-7.107 16.685-9.424 23.483-16.067 48.357-2.163 8.498-5.253 12.36-9.888 12.36-8.034 0-49.593 17.767-62.416 26.573-9.578 6.798-32.753 27.5-36.924 33.217-21.785 29.663-25.801 37.079-32.753 58.863-6.026 19.003-8.498 35.225-8.498 55 0 49.284 16.994 90.534 51.757 125.296 21.475 21.475 46.658 36.924 72.612 44.185 30.591 8.498 21.629 8.343 260.325 8.343 200.69 0 221.392-0.309 234.833-2.627 16.376-2.935 40.787-9.424 43.723-11.587 1.082-0.773 4.326-2.472 7.262-3.553 7.107-2.781 23.483-13.441 35.689-23.174 39.705-31.826 64.58-84.509 64.734-137.037 0-15.141-6.026-49.902-10.042-57.627-1.236-2.472-2.317-5.407-2.317-6.489 0-2.781-11.897-25.955-15.141-29.818-1.545-1.7-4.634-6.026-7.107-9.734-6.026-9.578-13.75-17.768-28.736-30.281-14.986-12.823-24.719-19.466-32.444-22.556-2.935-1.082-6.18-2.627-7.107-3.398-2.163-1.545-29.973-11.741-37.697-13.75-2.935-0.772-15.758-1.853-28.582-2.472-25.955-0.927-44.804 0.927-57.936 5.872-4.634 1.7-11.741 4.172-15.758 5.562-9.425 3.09-28.583 13.596-37.697 20.548-19.466 14.986-59.635 50.984-81.728 73.386-8.652 8.807-111.237 107.684-145.072 139.818-8.498 8.034-21.167 20.548-28.272 27.654l-12.823 12.823-25.801-1.082c-14.368-0.464-31.981-2.009-39.397-3.09-40.169-6.644-73.23-36.924-84.2-77.248-3.244-11.741-3.553-41.56-0.618-53.302 5.098-20.085 19.776-43.259 35.997-56.855 17.149-14.368 47.122-25.028 70.295-25.028 27.809 0 58.708 14.368 86.055 39.86 5.253 4.79 12.978 11.587 16.994 14.985 4.172 3.398 11.897 10.197 16.994 14.986 5.253 4.943 10.352 8.961 11.588 8.961 2.781 0 8.807-5.098 30.744-26.573 10.352-10.197 18.848-19.466 18.848-20.548 0-1.082-6.798-7.725-14.985-14.677-8.343-7.107-16.222-13.904-17.613-15.449-2.935-3.398-30.591-25.8-44.804-36.46-12.668-9.578-29.663-18.54-48.203-25.337-7.571-2.935-14.059-5.872-14.368-6.953-0.773-2.009 8.961-29.973 13.596-38.623 9.578-18.385 21.785-33.989 39.397-50.675 16.067-15.141 42.178-29.663 63.035-34.916 3.398-0.773 10.659-2.781 16.223-4.172 7.417-2.008 15.913-2.781 32.444-2.781 19.313 0 24.565 0.618 38.623 4.172 30.745 8.034 51.447 18.385 72.457 36.616 13.441 11.741 27.346 28.118 36.152 43.104 4.016 6.798 7.879 12.668 8.498 13.132 0.618 0.309 5.562-0.463 11.123-1.699s20.857-2.781 33.989-3.244c26.882-1.236 27.654-1.545 21.938-12.36-1.545-3.09-3.862-8.497-4.943-11.897-1.082-3.398-3.553-8.652-5.407-11.588-1.853-2.935-3.863-6.489-4.326-7.725-3.398-7.107-17.459-25.955-30.591-41.096-15.912-18.231-44.341-39.551-67.823-50.983-8.034-4.016-15.913-7.88-17.459-8.652-2.781-1.39-7.725-3.09-28.118-9.424-25.801-8.189-66.124-10.815-98.414-6.489zM741.27 512.927c28.428 7.262 44.185 16.531 60.871 35.998 17.303 19.93 23.792 37.852 24.565 67.051 0.618 18.077 0.309 20.858-3.398 32.289-5.253 16.222-10.352 26.419-18.231 35.997-14.986 18.385-36.77 32.599-57.318 37.387-5.098 1.081-19.466 2.781-31.826 3.553-28.582 1.853-260.633 2.009-261.714 0.155-0.464-0.773 15.913-17.613 36.46-37.387 20.548-19.93 41.869-40.632 47.43-46.193 16.686-16.376 80.647-77.557 89.762-85.746 4.634-4.326 9.116-8.652 9.734-9.578 2.009-3.09 23.174-18.385 32.289-23.174 4.48-2.472 13.441-6.025 19.776-8.034 6.336-1.853 12.36-3.708 13.132-4.016 4.48-1.545 30.127-0.464 38.468 1.7z" fill="#1296db" p-id="22138"></path></svg>