<?xml version="1.0" standalone="no"?><!DOCTYPE svg PUBLIC "-//W3C//DTD SVG 1.1//EN" "http://www.w3.org/Graphics/SVG/1.1/DTD/svg11.dtd"><svg t="1547621778065" class="icon" style="" viewBox="0 0 1024 1024" version="1.1" xmlns="http://www.w3.org/2000/svg" p-id="19451" xmlns:xlink="http://www.w3.org/1999/xlink" width="200" height="200"><defs><style type="text/css"></style></defs><path d="M526.784 77.824c-247.04 0-448 200.96-448 448s200.96 448 448 448 448-200.96 448-448-200.96-448-448-448z m317.824 193.856l9.664-5.312 6.656 8.832a415.616 415.616 0 0 1 82.688 222.336l0.896 13.568h-184.576l-0.384-12.288a572.16 572.16 0 0 0-29.568-163.072l-3.968-11.84 11.776-4.16a716.16 716.16 0 0 0 106.816-48.064z m-203.136-147.584a419.2 419.2 0 0 1 182.528 108.352l11.84 12.032-14.848 8.064a648.96 648.96 0 0 1-93.76 41.472l-11.2 3.904-4.672-10.88A677.312 677.312 0 0 0 627.84 143.936l-22.976-30.336 36.608 10.496z m-99.328-16.128c5.312 0.32 10.88 0.704 16.832 1.28l5.056 5.248a641.536 641.536 0 0 1 118.272 178.048l6.08 13.824-14.656 3.648a584.32 584.32 0 0 1-118.4 16.96l-13.184 0.512v-219.52z m0 247.872l12.16-0.512a624.128 624.128 0 0 0 132.544-20.16l11.904-1.92 3.776 11.264c16.832 50.496 26.24 102.08 28.032 153.344l0.448 13.12H542.144V355.84z m0 185.344h187.968l-1.024 13.632a566.016 566.016 0 0 1-33.92 152.96l-3.904 10.688-11.072-2.752a621.888 621.888 0 0 0-125.888-18.304l-12.16-0.512V541.184z m13.184 184.576a583.68 583.68 0 0 1 110.336 14.976l15.232 3.584-6.592 14.144c-26.56 57.024-63.424 115.072-109.568 172.544l-11.008 13.632-11.584 0.704v-220.096l13.184 0.512z m-65.92 205.504a855.424 855.424 0 0 1-108.416-170.688l-6.592-14.08 15.04-3.712a615.616 615.616 0 0 1 109.12-16.576l13.44-0.704v220.224a285.312 285.312 0 0 1-11.456-0.576l-11.136-13.888zM512 511.04H322.752l0.384-13.056a535.04 535.04 0 0 1 27.968-155.52l3.776-11.264 11.52 3.072c44.032 11.776 88.96 18.752 133.504 20.928L512 355.712v155.328z m0 30.144v155.84l-12.096 0.576a638.72 638.72 0 0 0-125.696 18.88l-11.072 2.816-3.968-10.688a577.536 577.536 0 0 1-34.624-153.728l-1.024-13.696H512z m-15.296-433.728c4.544-0.192 9.6-0.384 15.296-0.384v220.032l-13.44-0.768a610.432 610.432 0 0 1-118.464-19.008l-14.528-3.776 6.144-13.696A630.464 630.464 0 0 1 490.24 114.112l6.464-6.656z m-265.6 123.328a418.368 418.368 0 0 1 181.76-106.944l36.544-10.368-22.976 30.272a684.288 684.288 0 0 0-82.624 140.736l-4.672 10.816-11.136-3.904a740.672 740.672 0 0 1-93.696-40.32l-15.488-7.936 12.288-12.352zM109.952 497.472a415.68 415.68 0 0 1 82.816-222.464l6.528-8.64 9.6 5.056c35.392 18.816 71.68 34.752 107.776 47.36l11.84 4.16-4.032 11.84a571.52 571.52 0 0 0-29.824 163.904l-0.448 12.352H109.056l0.896-13.568z m99.456 283.392l-9.536 5.056-6.528-8.64a415.232 415.232 0 0 1-83.328-222.592l-0.96-13.504h185.664l0.768 11.84c3.52 54.016 15.168 108.736 34.56 162.56l4.416 12.16-12.224 4.16c-37.44 12.672-75.392 29.184-112.832 48.96zM422.4 930.432a417.664 417.664 0 0 1-190.464-108.864l-12.352-12.352 15.552-7.936a741.568 741.568 0 0 1 99.648-42.368l10.88-3.712 4.736 10.496c21.76 48.128 50.496 96.896 85.44 144.96l20.736 28.544-34.176-8.768z m400.96-110.592a418.304 418.304 0 0 1-191.36 110.4l-34.24 8.896 20.8-28.672a830.976 830.976 0 0 0 86.4-147.328l4.672-10.496 10.944 3.648c34.112 11.456 67.712 26.112 99.84 43.392l14.912 8.064-11.968 12.096z m120.192-265.152a415.296 415.296 0 0 1-83.264 222.464l-6.656 8.768-9.6-5.312a694.592 694.592 0 0 0-111.872-49.6l-12.224-4.16 4.352-12.16c19.2-53.568 30.72-107.968 34.304-161.728l0.768-11.84h185.088l-0.896 13.568z" fill="#1296db" p-id="19452"></path></svg>